<svg xmlns="http://www.w3.org/2000/svg" xmlns:xlink="http://www.w3.org/1999/xlink" width="225" height="24"><defs><path id="a" d="M0 .114h36.403v22.973H0z"/><path id="c" d="M0 23.375h224.299V0H0z"/></defs><g fill="none" fill-rule="evenodd"><path fill="black" d="M-70-19h1440v60H-70z"/><g transform="translate(0 .289)"><mask id="b" fill="#fff"><use xlink:href="#a"/></mask><path fill="#FFF" d="M27.522 14.683a3.852 3.852 0 0 1-1.611.65c-.586.096-1.154.077-1.74.077h-11.94c-.585 0-1.153.02-1.739-.076a3.852 3.852 0 0 1-1.611-.651A3.821 3.821 0 0 1 7.325 11.6c0-1.245.585-2.393 1.556-3.083a3.846 3.846 0 0 1 1.611-.65c.586-.096 1.154-.077 1.74-.077H24.17c.586 0 1.154-.02 1.74.077a3.846 3.846 0 0 1 1.61.65 3.821 3.821 0 0 1 1.557 3.083c0 1.244-.586 2.393-1.556 3.082m4.797-11.965a10.865 10.865 0 0 0-4.34-2.22c-.915-.23-1.83-.326-2.764-.364-.696-.02-1.392-.02-2.088-.02h-9.851c-.696 0-1.392 0-2.088.02-.934.038-1.85.134-2.765.363a10.865 10.865 0 0 0-4.34 2.221C1.501 4.881 0 8.155 0 11.601c0 3.465 1.501 6.719 4.083 8.882a10.872 10.872 0 0 0 4.34 2.221c.916.23 1.831.326 2.765.364.696.019 1.392.019 2.088.019h9.851c.696 0 1.392 0 2.088-.02.934-.037 1.85-.133 2.765-.363a10.872 10.872 0 0 0 4.34-2.22c2.581-2.164 4.083-5.438 4.083-8.883 0-3.465-1.502-6.72-4.084-8.883" mask="url(#b)"/></g><path fill="#FFF" d="M56.807 12.667a4.08 4.08 0 0 1-.198.716c-.083.22-.187.431-.31.63a3.18 3.18 0 0 1-1.5 1.282 3.46 3.46 0 0 1-.67.203 3.614 3.614 0 0 1-1.424-.006 3.442 3.442 0 0 1-.667-.208 3.266 3.266 0 0 1-1.088-.76 3.296 3.296 0 0 1-.404-.533 3.644 3.644 0 0 1-.306-.632 4.09 4.09 0 0 1-.193-.717 4.407 4.407 0 0 1 .005-1.534 4.09 4.09 0 0 1 .198-.716c.083-.22.187-.43.31-.629a3.189 3.189 0 0 1 1.5-1.282 3.478 3.478 0 0 1 1.381-.272 3.57 3.57 0 0 1 1.38.282 3.259 3.259 0 0 1 1.088.76c.152.162.287.342.404.533.122.2.224.411.306.632.086.232.15.472.192.717a4.388 4.388 0 0 1-.004 1.534m-3.356-7.43a6.15 6.15 0 0 0-4.503 1.904c-1.193 1.258-1.803 2.976-1.809 4.724-.005 1.747.593 3.47 1.778 4.737a6.154 6.154 0 0 0 4.49 1.936 6.15 6.15 0 0 0 4.504-1.904c1.193-1.258 1.803-2.976 1.808-4.724.006-1.747-.592-3.47-1.778-4.737a6.153 6.153 0 0 0-4.49-1.936m51.335 6.279c-.002.35-.004.711-.025 1.06a6.07 6.07 0 0 1-.078.678c-.075.418-.207.82-.428 1.183-.537.88-1.48 1.312-2.44 1.325-.975.013-1.902-.405-2.424-1.316a3.744 3.744 0 0 1-.412-1.192c-.104-.56-.128-1.147-.141-1.713-.009-.37-.011-.739-.013-1.108-.003-.63-.003-1.282-.003-1.911V5.499h-2.893c0 .996-.002 4.13.004 5.165.003.495.007 1.002.021 1.497.011.362.028.729.058 1.09.073.856.225 1.693.598 2.479.766 1.61 2.253 2.543 3.91 2.748.814.1 1.65.026 2.435-.216.754-.231 1.554-.645 2.115-1.251l.082 1.226h2.525V5.499h-2.887c0 .796.001 5.203-.004 6.017m15.534 1.732c-.42-1.23-1.448-1.983-2.528-2.426-.61-.25-1.239-.405-1.875-.552-.28-.065-.559-.128-.835-.205a4.695 4.695 0 0 1-.698-.242c-.24-.11-.488-.26-.66-.482a.897.897 0 0 1-.193-.656c.033-.288.198-.524.404-.697.146-.122.303-.209.476-.279.224-.09.45-.141.688-.17a4.278 4.278 0 0 1 1.415.084c.7.153 1.35.444 1.956.831l1.447-2.073a7.23 7.23 0 0 0-3.243-1.384 6.82 6.82 0 0 0-1.99-.025 5.547 5.547 0 0 0-1.483.41 4.116 4.116 0 0 0-1.636 1.245 3.836 3.836 0 0 0-.68 1.377 3.507 3.507 0 0 0 .019 1.905c.173.572.492 1.058.922 1.448.902.818 2.162 1.116 3.246 1.36.38.086.76.168 1.134.28.303.091.619.208.893.38.215.134.413.309.545.54a1.09 1.09 0 0 1-.082 1.22 1.588 1.588 0 0 1-.556.455 2.708 2.708 0 0 1-.89.261 5.04 5.04 0 0 1-1.288-.01c-.47-.06-.92-.174-1.364-.347-.68-.264-1.274-.635-1.845-1.095l-1.544 2.156a8.322 8.322 0 0 0 3.109 1.723 7.797 7.797 0 0 0 1.933.32 7.195 7.195 0 0 0 1.577-.107c.67-.122 1.329-.345 1.918-.714.432-.27.808-.609 1.115-1.027a4.038 4.038 0 0 0 .745-1.85 3.61 3.61 0 0 0-.152-1.654m-51.237 2.205a3.75 3.75 0 0 1-2.055-.089 3.222 3.222 0 0 1-1.649-1.26c-.402-.596-.613-1.316-.65-2.035-.038-.714.094-1.464.415-2.103a3.005 3.005 0 0 1 1.504-1.44 3.843 3.843 0 0 1 2.037-.294c.701.09 1.342.356 1.933.75l1.744-2.315a6.371 6.371 0 0 0-3.416-1.451c-1.232-.138-2.519.06-3.646.62a5.914 5.914 0 0 0-2.66 2.651c-.588 1.152-.837 2.484-.778 3.777.06 1.297.432 2.588 1.153 3.665a5.906 5.906 0 0 0 2.952 2.29 6.725 6.725 0 0 0 3.69.224 6.132 6.132 0 0 0 3.231-1.845l-1.984-2.141a3.85 3.85 0 0 1-1.821.996"/><mask id="d" fill="#fff"><use xlink:href="#c"/></mask><path fill="#FFF" d="M89.782 18.237h3.046V.403h-3.046zm-6.252-6.721c-.001.35-.003.711-.025 1.06a6.069 6.069 0 0 1-.077.678c-.076.418-.207.82-.428 1.183-.538.88-1.48 1.312-2.44 1.325-.975.013-1.902-.405-2.424-1.316a3.739 3.739 0 0 1-.412-1.192c-.104-.56-.128-1.147-.142-1.713a68.34 68.34 0 0 1-.012-1.108c-.003-.63-.003-1.282-.003-1.911V5.499h-2.894c0 .996-.001 4.13.005 5.165.002.495.007 1.002.021 1.497.01.362.027.729.058 1.09.073.856.224 1.693.598 2.479.766 1.61 2.252 2.543 3.91 2.748.814.1 1.649.026 2.434-.216.755-.231 1.555-.645 2.116-1.251l.081 1.226h2.46V5.499h-2.821c0 .796.001 5.203-.004 6.017m57.498.35c0-3.347-2.222-5.496-4.78-5.496-2.532 0-4.97 2.224-4.97 5.471v.05c0 3.273 2.438 5.471 4.97 5.471 2.653 0 4.78-2.023 4.78-5.446v-.05zm-4.66 6.67c-2.437 0-4.014-1.449-5.018-3.048v2.748h-1.17V0h1.17v8.344c1.052-1.674 2.605-3.148 5.018-3.148 2.94 0 5.926 2.473 5.926 6.62v.05c0 4.147-2.986 6.67-5.926 6.67zm18.255-.3v-2.373c-.812 1.499-2.174 2.673-4.396 2.673-3.083 0-4.875-2.198-4.875-5.246V5.496h1.17v7.57c0 2.622 1.41 4.346 3.872 4.346 2.39 0 4.23-1.899 4.23-4.547v-7.37h1.17v12.741h-1.17zm9.199.25c-1.768 0-3.704-.75-4.994-1.848l.693-.975c1.338 1.075 2.82 1.674 4.373 1.674 1.649 0 2.939-.95 2.939-2.423v-.05c0-1.499-1.53-2.049-3.226-2.548-1.983-.6-4.182-1.224-4.182-3.498v-.05c0-2.048 1.65-3.522 4.015-3.522 1.457 0 3.106.55 4.325 1.4l-.622 1.023c-1.123-.774-2.46-1.274-3.751-1.274-1.673 0-2.772.95-2.772 2.224v.05c0 1.423 1.649 1.948 3.393 2.473 1.96.574 4.015 1.324 4.015 3.572v.05c0 2.273-1.864 3.722-4.206 3.722m7.742-.249h1.17V5.497h-1.17v12.74zm-.144-16.064h1.458V.5h-1.458v1.673zm14.839 16.063v-7.569c0-2.623-1.41-4.347-3.871-4.347-2.39 0-4.23 1.899-4.23 4.547v7.37h-1.17V5.495h1.17v2.373c.813-1.499 2.175-2.673 4.397-2.673 3.083 0 4.875 2.198 4.875 5.246v7.794h-1.171zm14.288-6.969c-.167-2.573-1.577-4.947-4.372-4.947-2.414 0-4.278 2.124-4.493 4.947h8.865zm-4.086 6.12c1.888 0 3.178-.874 4.182-1.998l.812.749c-1.242 1.399-2.7 2.398-5.042 2.398-3.201 0-5.973-2.673-5.973-6.645v-.05c0-3.697 2.485-6.645 5.782-6.645 3.417 0 5.592 2.898 5.592 6.67v.05c0 .175 0 .25-.024.45h-10.108c.215 3.172 2.39 5.02 4.78 5.02zm12.354 1.099c-1.769 0-3.704-.75-4.994-1.848l.692-.975c1.339 1.075 2.82 1.674 4.373 1.674 1.65 0 2.94-.95 2.94-2.423v-.05c0-1.499-1.53-2.049-3.227-2.548-1.983-.6-4.181-1.224-4.181-3.498v-.05c0-2.048 1.649-3.522 4.014-3.522 1.458 0 3.107.55 4.325 1.4l-.621 1.023c-1.123-.774-2.461-1.274-3.752-1.274-1.672 0-2.771.95-2.771 2.224v.05c0 1.423 1.648 1.948 3.393 2.473 1.96.574 4.014 1.324 4.014 3.572v.05c0 2.273-1.864 3.722-4.205 3.722m11.278 0c-1.769 0-3.704-.75-4.994-1.848l.692-.975c1.339 1.075 2.82 1.674 4.373 1.674 1.65 0 2.94-.95 2.94-2.423v-.05c0-1.499-1.53-2.049-3.226-2.548-1.984-.6-4.182-1.224-4.182-3.498v-.05c0-2.048 1.649-3.522 4.014-3.522 1.458 0 3.107.55 4.325 1.4l-.621 1.023c-1.123-.774-2.461-1.274-3.752-1.274-1.672 0-2.771.95-2.771 2.224v.05c0 1.423 1.648 1.948 3.393 2.473 1.96.574 4.014 1.324 4.014 3.572v.05c0 2.273-1.864 3.722-4.205 3.722" mask="url(#d)"/></g></svg>
